<?xml version="1.0" standalone="no"?>
<!DOCTYPE svg PUBLIC "-//W3C//DTD SVG 20010904//EN"
 "http://www.w3.org/TR/2001/REC-SVG-20010904/DTD/svg10.dtd">
<svg version="1.0" xmlns="http://www.w3.org/2000/svg"
 width="168.000000pt" height="168.000000pt" viewBox="0 0 168.000000 168.000000"
 preserveAspectRatio="xMidYMid meet">
<metadata>
Created by potrace 1.11, written by Peter Selinger 2001-2013
</metadata>
<g transform="translate(0.000000,168.000000) scale(0.100000,-0.100000)"
fill="#000000" stroke="none">
<path d="M627 1616 c-51 -34 -70 -95 -48 -150 4 -10 155 -166 336 -347 l329
-329 -66 0 c-51 0 -72 -5 -99 -23 -79 -53 -79 -151 0 -204 33 -22 41 -23 266
-23 335 0 324 -12 321 340 -1 217 -2 226 -24 257 -43 61 -136 67 -188 12 -25
-26 -29 -39 -32 -106 l-4 -75 -332 330 c-333 332 -346 343 -409 340 -11 -1
-33 -11 -50 -22z"/>
<path d="M93 1125 c-18 -8 -42 -29 -53 -47 -19 -31 -20 -46 -18 -270 3 -223 4
-238 24 -265 12 -15 38 -34 59 -42 32 -13 43 -13 78 0 61 21 87 65 87 148 l0
66 333 -333 c183 -182 339 -332 347 -333 8 0 27 -3 42 -5 66 -11 132 60 124
131 -3 22 -5 42 -5 45 -1 2 -151 154 -333 337 l-333 333 65 0 c47 0 74 6 97
20 81 49 81 161 0 210 -29 18 -51 20 -257 20 -171 -1 -233 -4 -257 -15z"/>
</g>
</svg>
